<mxfile host="app.diagrams.net" agent="Mozilla/5.0 (Macintosh; Intel Mac OS X 10_15_7) AppleWebKit/537.36 (KHTML, like Gecko) Chrome/128.0.0.0 Safari/537.36" version="24.7.12">
  <diagram name="Page-1" id="8XfuiLttBX15eR1e0odx">
    <mxGraphModel dx="3342" dy="2310" grid="1" gridSize="10" guides="1" tooltips="1" connect="1" arrows="1" fold="1" page="1" pageScale="1" pageWidth="850" pageHeight="1100" math="0" shadow="0">
      <root>
        <mxCell id="0" />
        <mxCell id="1" parent="0" />
        <mxCell id="9HbOgAZdW0a7DW-UxLI3-41" style="edgeStyle=orthogonalEdgeStyle;rounded=0;orthogonalLoop=1;jettySize=auto;html=1;entryX=0;entryY=0.5;entryDx=0;entryDy=0;exitX=0.5;exitY=1;exitDx=0;exitDy=0;" parent="1" source="9HbOgAZdW0a7DW-UxLI3-1" target="9HbOgAZdW0a7DW-UxLI3-15" edge="1">
          <mxGeometry relative="1" as="geometry">
            <Array as="points">
              <mxPoint x="330" y="37" />
            </Array>
          </mxGeometry>
        </mxCell>
        <mxCell id="9HbOgAZdW0a7DW-UxLI3-1" value="Propagation Calculation" style="rounded=1;whiteSpace=wrap;html=1;" parent="1" vertex="1">
          <mxGeometry x="290" y="-38" width="80" height="40" as="geometry" />
        </mxCell>
        <mxCell id="9HbOgAZdW0a7DW-UxLI3-43" style="edgeStyle=orthogonalEdgeStyle;rounded=0;orthogonalLoop=1;jettySize=auto;html=1;exitX=1;exitY=0.5;exitDx=0;exitDy=0;entryX=0;entryY=0.5;entryDx=0;entryDy=0;" parent="1" source="9HbOgAZdW0a7DW-UxLI3-2" target="9HbOgAZdW0a7DW-UxLI3-42" edge="1">
          <mxGeometry relative="1" as="geometry" />
        </mxCell>
        <mxCell id="9HbOgAZdW0a7DW-UxLI3-2" value="Pointing Calculation" style="rounded=1;whiteSpace=wrap;html=1;" parent="1" vertex="1">
          <mxGeometry x="608" y="-38" width="80" height="40" as="geometry" />
        </mxCell>
        <mxCell id="9HbOgAZdW0a7DW-UxLI3-57" style="edgeStyle=orthogonalEdgeStyle;rounded=0;orthogonalLoop=1;jettySize=auto;html=1;entryX=0;entryY=0.5;entryDx=0;entryDy=0;" parent="1" source="9HbOgAZdW0a7DW-UxLI3-3" target="9HbOgAZdW0a7DW-UxLI3-56" edge="1">
          <mxGeometry relative="1" as="geometry" />
        </mxCell>
        <mxCell id="9HbOgAZdW0a7DW-UxLI3-60" style="edgeStyle=orthogonalEdgeStyle;rounded=0;orthogonalLoop=1;jettySize=auto;html=1;exitX=0.5;exitY=1;exitDx=0;exitDy=0;entryX=0;entryY=0.5;entryDx=0;entryDy=0;" parent="1" source="9HbOgAZdW0a7DW-UxLI3-3" target="9HbOgAZdW0a7DW-UxLI3-20" edge="1">
          <mxGeometry relative="1" as="geometry" />
        </mxCell>
        <mxCell id="9HbOgAZdW0a7DW-UxLI3-3" value="Access Calculation" style="rounded=1;whiteSpace=wrap;html=1;" parent="1" vertex="1">
          <mxGeometry x="290" y="272" width="80" height="40" as="geometry" />
        </mxCell>
        <mxCell id="9HbOgAZdW0a7DW-UxLI3-66" style="edgeStyle=orthogonalEdgeStyle;rounded=0;orthogonalLoop=1;jettySize=auto;html=1;exitX=1;exitY=0.5;exitDx=0;exitDy=0;entryX=0;entryY=0.5;entryDx=0;entryDy=0;" parent="1" source="9HbOgAZdW0a7DW-UxLI3-4" target="9HbOgAZdW0a7DW-UxLI3-65" edge="1">
          <mxGeometry relative="1" as="geometry" />
        </mxCell>
        <mxCell id="9HbOgAZdW0a7DW-UxLI3-4" value="Coverage Calculation" style="rounded=1;whiteSpace=wrap;html=1;" parent="1" vertex="1">
          <mxGeometry x="608" y="272" width="80" height="40" as="geometry" />
        </mxCell>
        <mxCell id="9HbOgAZdW0a7DW-UxLI3-5" value="start" style="text;html=1;align=right;verticalAlign=middle;whiteSpace=wrap;rounded=0;" parent="1" vertex="1">
          <mxGeometry x="-30" y="60" width="80" height="30" as="geometry" />
        </mxCell>
        <mxCell id="9HbOgAZdW0a7DW-UxLI3-6" value="duration" style="text;html=1;align=right;verticalAlign=middle;whiteSpace=wrap;rounded=0;" parent="1" vertex="1">
          <mxGeometry x="-30" y="90" width="80" height="30" as="geometry" />
        </mxCell>
        <mxCell id="9HbOgAZdW0a7DW-UxLI3-7" value="satellites" style="text;html=1;align=right;verticalAlign=middle;whiteSpace=wrap;rounded=0;" parent="1" vertex="1">
          <mxGeometry x="-30" y="120" width="80" height="30" as="geometry" />
        </mxCell>
        <mxCell id="9HbOgAZdW0a7DW-UxLI3-8" value="time_step" style="text;html=1;align=right;verticalAlign=middle;whiteSpace=wrap;rounded=0;" parent="1" vertex="1">
          <mxGeometry x="-30" y="150" width="80" height="30" as="geometry" />
        </mxCell>
        <mxCell id="9HbOgAZdW0a7DW-UxLI3-9" value="propagator" style="text;html=1;align=right;verticalAlign=middle;whiteSpace=wrap;rounded=0;" parent="1" vertex="1">
          <mxGeometry x="-30" y="180" width="80" height="30" as="geometry" />
        </mxCell>
        <mxCell id="9HbOgAZdW0a7DW-UxLI3-10" value="" style="endArrow=classic;html=1;rounded=0;exitX=1;exitY=0.5;exitDx=0;exitDy=0;entryX=0;entryY=0.5;entryDx=0;entryDy=0;" parent="1" source="9HbOgAZdW0a7DW-UxLI3-5" target="9HbOgAZdW0a7DW-UxLI3-28" edge="1">
          <mxGeometry width="50" height="50" relative="1" as="geometry">
            <mxPoint x="290" y="160" as="sourcePoint" />
            <mxPoint x="90" y="140" as="targetPoint" />
            <Array as="points">
              <mxPoint x="70" y="75" />
              <mxPoint x="70" y="140" />
            </Array>
          </mxGeometry>
        </mxCell>
        <mxCell id="9HbOgAZdW0a7DW-UxLI3-11" value="" style="endArrow=classic;html=1;rounded=0;exitX=1;exitY=0.5;exitDx=0;exitDy=0;entryX=0;entryY=0.5;entryDx=0;entryDy=0;" parent="1" source="9HbOgAZdW0a7DW-UxLI3-6" target="9HbOgAZdW0a7DW-UxLI3-28" edge="1">
          <mxGeometry width="50" height="50" relative="1" as="geometry">
            <mxPoint x="60" y="85" as="sourcePoint" />
            <mxPoint x="90" y="140" as="targetPoint" />
            <Array as="points">
              <mxPoint x="70" y="105" />
              <mxPoint x="70" y="140" />
            </Array>
          </mxGeometry>
        </mxCell>
        <mxCell id="9HbOgAZdW0a7DW-UxLI3-12" value="" style="endArrow=classic;html=1;rounded=0;exitX=1;exitY=0.5;exitDx=0;exitDy=0;entryX=0;entryY=0.5;entryDx=0;entryDy=0;" parent="1" source="9HbOgAZdW0a7DW-UxLI3-7" target="9HbOgAZdW0a7DW-UxLI3-28" edge="1">
          <mxGeometry width="50" height="50" relative="1" as="geometry">
            <mxPoint x="60" y="115" as="sourcePoint" />
            <mxPoint x="90" y="140" as="targetPoint" />
            <Array as="points">
              <mxPoint x="70" y="135" />
              <mxPoint x="70" y="140" />
            </Array>
          </mxGeometry>
        </mxCell>
        <mxCell id="9HbOgAZdW0a7DW-UxLI3-13" value="" style="endArrow=classic;html=1;rounded=0;exitX=1;exitY=0.5;exitDx=0;exitDy=0;entryX=0;entryY=0.5;entryDx=0;entryDy=0;" parent="1" source="9HbOgAZdW0a7DW-UxLI3-8" target="9HbOgAZdW0a7DW-UxLI3-28" edge="1">
          <mxGeometry width="50" height="50" relative="1" as="geometry">
            <mxPoint x="60" y="145" as="sourcePoint" />
            <mxPoint x="90" y="140" as="targetPoint" />
            <Array as="points">
              <mxPoint x="70" y="165" />
              <mxPoint x="70" y="140" />
            </Array>
          </mxGeometry>
        </mxCell>
        <mxCell id="9HbOgAZdW0a7DW-UxLI3-14" value="" style="endArrow=classic;html=1;rounded=0;exitX=1;exitY=0.5;exitDx=0;exitDy=0;entryX=0;entryY=0.5;entryDx=0;entryDy=0;" parent="1" source="9HbOgAZdW0a7DW-UxLI3-9" target="9HbOgAZdW0a7DW-UxLI3-28" edge="1">
          <mxGeometry width="50" height="50" relative="1" as="geometry">
            <mxPoint x="60" y="175" as="sourcePoint" />
            <mxPoint x="90" y="140" as="targetPoint" />
            <Array as="points">
              <mxPoint x="70" y="195" />
              <mxPoint x="70" y="140" />
            </Array>
          </mxGeometry>
        </mxCell>
        <mxCell id="9HbOgAZdW0a7DW-UxLI3-15" value="satellite_records" style="text;html=1;align=center;verticalAlign=middle;whiteSpace=wrap;rounded=0;" parent="1" vertex="1">
          <mxGeometry x="375" y="22" width="100" height="30" as="geometry" />
        </mxCell>
        <mxCell id="9HbOgAZdW0a7DW-UxLI3-16" value="" style="endArrow=classic;html=1;rounded=0;exitX=1;exitY=0.5;exitDx=0;exitDy=0;entryX=0;entryY=0.5;entryDx=0;entryDy=0;" parent="1" source="9HbOgAZdW0a7DW-UxLI3-1" target="9HbOgAZdW0a7DW-UxLI3-34" edge="1">
          <mxGeometry width="50" height="50" relative="1" as="geometry">
            <mxPoint x="460" y="22" as="sourcePoint" />
            <mxPoint x="510" y="-28" as="targetPoint" />
          </mxGeometry>
        </mxCell>
        <mxCell id="9HbOgAZdW0a7DW-UxLI3-38" style="edgeStyle=orthogonalEdgeStyle;rounded=0;orthogonalLoop=1;jettySize=auto;html=1;entryX=0.5;entryY=0;entryDx=0;entryDy=0;" parent="1" source="9HbOgAZdW0a7DW-UxLI3-18" target="9HbOgAZdW0a7DW-UxLI3-36" edge="1">
          <mxGeometry relative="1" as="geometry" />
        </mxCell>
        <mxCell id="9HbOgAZdW0a7DW-UxLI3-18" value="mode" style="text;html=1;align=center;verticalAlign=middle;whiteSpace=wrap;rounded=0;" parent="1" vertex="1">
          <mxGeometry x="518" y="-88" width="60" height="30" as="geometry" />
        </mxCell>
        <mxCell id="9HbOgAZdW0a7DW-UxLI3-59" style="edgeStyle=orthogonalEdgeStyle;rounded=0;orthogonalLoop=1;jettySize=auto;html=1;exitX=0.5;exitY=0;exitDx=0;exitDy=0;entryX=0.5;entryY=1;entryDx=0;entryDy=0;" parent="1" source="9HbOgAZdW0a7DW-UxLI3-20" target="9HbOgAZdW0a7DW-UxLI3-56" edge="1">
          <mxGeometry relative="1" as="geometry" />
        </mxCell>
        <mxCell id="9HbOgAZdW0a7DW-UxLI3-20" value="target_records" style="text;html=1;align=center;verticalAlign=middle;whiteSpace=wrap;rounded=0;" parent="1" vertex="1">
          <mxGeometry x="380" y="332" width="100" height="30" as="geometry" />
        </mxCell>
        <mxCell id="9HbOgAZdW0a7DW-UxLI3-23" value="" style="endArrow=classic;html=1;rounded=0;exitX=1;exitY=0.5;exitDx=0;exitDy=0;entryX=0;entryY=0.5;entryDx=0;entryDy=0;" parent="1" source="9HbOgAZdW0a7DW-UxLI3-56" target="9HbOgAZdW0a7DW-UxLI3-4" edge="1">
          <mxGeometry width="50" height="50" relative="1" as="geometry">
            <mxPoint x="500" y="272" as="sourcePoint" />
            <mxPoint x="530" y="282" as="targetPoint" />
          </mxGeometry>
        </mxCell>
        <mxCell id="9HbOgAZdW0a7DW-UxLI3-53" style="edgeStyle=orthogonalEdgeStyle;rounded=0;orthogonalLoop=1;jettySize=auto;html=1;entryX=0.5;entryY=1;entryDx=0;entryDy=0;" parent="1" source="9HbOgAZdW0a7DW-UxLI3-24" target="9HbOgAZdW0a7DW-UxLI3-49" edge="1">
          <mxGeometry relative="1" as="geometry" />
        </mxCell>
        <mxCell id="9HbOgAZdW0a7DW-UxLI3-24" value="payload_ids" style="text;html=1;align=center;verticalAlign=middle;whiteSpace=wrap;rounded=0;" parent="1" vertex="1">
          <mxGeometry x="190" y="332" width="80" height="30" as="geometry" />
        </mxCell>
        <mxCell id="9HbOgAZdW0a7DW-UxLI3-77" style="edgeStyle=orthogonalEdgeStyle;rounded=0;orthogonalLoop=1;jettySize=auto;html=1;exitX=0.5;exitY=0;exitDx=0;exitDy=0;entryX=0;entryY=0.5;entryDx=0;entryDy=0;" parent="1" source="9HbOgAZdW0a7DW-UxLI3-28" target="9HbOgAZdW0a7DW-UxLI3-32" edge="1">
          <mxGeometry relative="1" as="geometry">
            <Array as="points">
              <mxPoint x="130" y="-20" />
              <mxPoint x="190" y="-20" />
            </Array>
          </mxGeometry>
        </mxCell>
        <mxCell id="9HbOgAZdW0a7DW-UxLI3-78" style="edgeStyle=orthogonalEdgeStyle;rounded=0;orthogonalLoop=1;jettySize=auto;html=1;exitX=0.5;exitY=1;exitDx=0;exitDy=0;" parent="1" source="9HbOgAZdW0a7DW-UxLI3-28" edge="1">
          <mxGeometry relative="1" as="geometry">
            <Array as="points">
              <mxPoint x="130" y="290" />
              <mxPoint x="190" y="290" />
            </Array>
            <mxPoint x="190" y="290" as="targetPoint" />
          </mxGeometry>
        </mxCell>
        <mxCell id="9HbOgAZdW0a7DW-UxLI3-28" value="Base&lt;br&gt;Request" style="shape=parallelogram;perimeter=parallelogramPerimeter;whiteSpace=wrap;html=1;fixedSize=1;" parent="1" vertex="1">
          <mxGeometry x="80" y="120" width="100" height="40" as="geometry" />
        </mxCell>
        <mxCell id="9HbOgAZdW0a7DW-UxLI3-33" style="edgeStyle=orthogonalEdgeStyle;rounded=0;orthogonalLoop=1;jettySize=auto;html=1;exitX=1;exitY=0.5;exitDx=0;exitDy=0;entryX=0;entryY=0.5;entryDx=0;entryDy=0;" parent="1" source="9HbOgAZdW0a7DW-UxLI3-32" target="9HbOgAZdW0a7DW-UxLI3-1" edge="1">
          <mxGeometry relative="1" as="geometry" />
        </mxCell>
        <mxCell id="9HbOgAZdW0a7DW-UxLI3-32" value="Propagation&lt;br&gt;Request" style="shape=parallelogram;perimeter=parallelogramPerimeter;whiteSpace=wrap;html=1;fixedSize=1;" parent="1" vertex="1">
          <mxGeometry x="180" y="-38" width="100" height="40" as="geometry" />
        </mxCell>
        <mxCell id="9HbOgAZdW0a7DW-UxLI3-35" style="edgeStyle=orthogonalEdgeStyle;rounded=0;orthogonalLoop=1;jettySize=auto;html=1;exitX=1;exitY=0.5;exitDx=0;exitDy=0;entryX=0;entryY=0.5;entryDx=0;entryDy=0;" parent="1" source="9HbOgAZdW0a7DW-UxLI3-34" target="9HbOgAZdW0a7DW-UxLI3-36" edge="1">
          <mxGeometry relative="1" as="geometry">
            <mxPoint x="520" y="-17.758620689655174" as="targetPoint" />
            <Array as="points" />
          </mxGeometry>
        </mxCell>
        <mxCell id="9HbOgAZdW0a7DW-UxLI3-34" value="Propagation&lt;br&gt;Response" style="shape=parallelogram;perimeter=parallelogramPerimeter;whiteSpace=wrap;html=1;fixedSize=1;" parent="1" vertex="1">
          <mxGeometry x="380" y="-38" width="100" height="40" as="geometry" />
        </mxCell>
        <mxCell id="9HbOgAZdW0a7DW-UxLI3-40" style="edgeStyle=orthogonalEdgeStyle;rounded=0;orthogonalLoop=1;jettySize=auto;html=1;exitX=1;exitY=0.5;exitDx=0;exitDy=0;entryX=0;entryY=0.5;entryDx=0;entryDy=0;" parent="1" source="9HbOgAZdW0a7DW-UxLI3-36" target="9HbOgAZdW0a7DW-UxLI3-2" edge="1">
          <mxGeometry relative="1" as="geometry" />
        </mxCell>
        <mxCell id="9HbOgAZdW0a7DW-UxLI3-36" value="Pointing&lt;br&gt;Request" style="shape=parallelogram;perimeter=parallelogramPerimeter;whiteSpace=wrap;html=1;fixedSize=1;" parent="1" vertex="1">
          <mxGeometry x="498" y="-38" width="100" height="40" as="geometry" />
        </mxCell>
        <mxCell id="9HbOgAZdW0a7DW-UxLI3-39" style="edgeStyle=orthogonalEdgeStyle;rounded=0;orthogonalLoop=1;jettySize=auto;html=1;exitX=0.5;exitY=0;exitDx=0;exitDy=0;entryX=0.445;entryY=0.963;entryDx=0;entryDy=0;entryPerimeter=0;" parent="1" source="9HbOgAZdW0a7DW-UxLI3-15" target="9HbOgAZdW0a7DW-UxLI3-34" edge="1">
          <mxGeometry relative="1" as="geometry" />
        </mxCell>
        <mxCell id="9HbOgAZdW0a7DW-UxLI3-42" value="Pointing&lt;br&gt;&lt;div&gt;Response&lt;/div&gt;" style="shape=parallelogram;perimeter=parallelogramPerimeter;whiteSpace=wrap;html=1;fixedSize=1;" parent="1" vertex="1">
          <mxGeometry x="698" y="-38" width="100" height="40" as="geometry" />
        </mxCell>
        <mxCell id="9HbOgAZdW0a7DW-UxLI3-44" style="edgeStyle=orthogonalEdgeStyle;rounded=0;orthogonalLoop=1;jettySize=auto;html=1;entryX=0;entryY=0.5;entryDx=0;entryDy=0;exitX=0.5;exitY=1;exitDx=0;exitDy=0;" parent="1" source="9HbOgAZdW0a7DW-UxLI3-2" edge="1">
          <mxGeometry relative="1" as="geometry">
            <mxPoint x="628" y="2" as="sourcePoint" />
            <mxPoint x="698" y="37" as="targetPoint" />
            <Array as="points">
              <mxPoint x="648" y="37" />
            </Array>
          </mxGeometry>
        </mxCell>
        <mxCell id="9HbOgAZdW0a7DW-UxLI3-45" style="edgeStyle=orthogonalEdgeStyle;rounded=0;orthogonalLoop=1;jettySize=auto;html=1;exitX=0.5;exitY=0;exitDx=0;exitDy=0;entryX=0.5;entryY=1;entryDx=0;entryDy=0;" parent="1" target="9HbOgAZdW0a7DW-UxLI3-42" edge="1">
          <mxGeometry relative="1" as="geometry">
            <mxPoint x="723" y="1" as="targetPoint" />
            <mxPoint x="748" y="22" as="sourcePoint" />
          </mxGeometry>
        </mxCell>
        <mxCell id="9HbOgAZdW0a7DW-UxLI3-46" value="satellite_records" style="text;html=1;align=center;verticalAlign=middle;whiteSpace=wrap;rounded=0;" parent="1" vertex="1">
          <mxGeometry x="698" y="22" width="100" height="30" as="geometry" />
        </mxCell>
        <mxCell id="9HbOgAZdW0a7DW-UxLI3-55" style="edgeStyle=orthogonalEdgeStyle;rounded=0;orthogonalLoop=1;jettySize=auto;html=1;exitX=1;exitY=0.5;exitDx=0;exitDy=0;entryX=0;entryY=0.5;entryDx=0;entryDy=0;" parent="1" source="9HbOgAZdW0a7DW-UxLI3-49" target="9HbOgAZdW0a7DW-UxLI3-3" edge="1">
          <mxGeometry relative="1" as="geometry" />
        </mxCell>
        <mxCell id="9HbOgAZdW0a7DW-UxLI3-49" value="Access&lt;br&gt;Request" style="shape=parallelogram;perimeter=parallelogramPerimeter;whiteSpace=wrap;html=1;fixedSize=1;" parent="1" vertex="1">
          <mxGeometry x="180" y="272" width="100" height="40" as="geometry" />
        </mxCell>
        <mxCell id="9HbOgAZdW0a7DW-UxLI3-52" style="edgeStyle=orthogonalEdgeStyle;rounded=0;orthogonalLoop=1;jettySize=auto;html=1;entryX=0.5;entryY=0;entryDx=0;entryDy=0;" parent="1" source="9HbOgAZdW0a7DW-UxLI3-50" target="9HbOgAZdW0a7DW-UxLI3-32" edge="1">
          <mxGeometry relative="1" as="geometry" />
        </mxCell>
        <mxCell id="9HbOgAZdW0a7DW-UxLI3-50" value="frame" style="text;html=1;align=center;verticalAlign=middle;whiteSpace=wrap;rounded=0;" parent="1" vertex="1">
          <mxGeometry x="200" y="-88" width="60" height="30" as="geometry" />
        </mxCell>
        <mxCell id="9HbOgAZdW0a7DW-UxLI3-56" value="Access&lt;br&gt;Response" style="shape=parallelogram;perimeter=parallelogramPerimeter;whiteSpace=wrap;html=1;fixedSize=1;" parent="1" vertex="1">
          <mxGeometry x="380" y="272" width="100" height="40" as="geometry" />
        </mxCell>
        <mxCell id="9HbOgAZdW0a7DW-UxLI3-58" value="Coverage&lt;br&gt;Request" style="shape=parallelogram;perimeter=parallelogramPerimeter;whiteSpace=wrap;html=1;fixedSize=1;" parent="1" vertex="1">
          <mxGeometry x="498" y="272" width="100" height="40" as="geometry" />
        </mxCell>
        <mxCell id="9HbOgAZdW0a7DW-UxLI3-76" style="edgeStyle=orthogonalEdgeStyle;rounded=0;orthogonalLoop=1;jettySize=auto;html=1;entryX=0.5;entryY=1;entryDx=0;entryDy=0;" parent="1" source="9HbOgAZdW0a7DW-UxLI3-61" target="9HbOgAZdW0a7DW-UxLI3-58" edge="1">
          <mxGeometry relative="1" as="geometry" />
        </mxCell>
        <mxCell id="9HbOgAZdW0a7DW-UxLI3-61" value="omit_satellite_ids" style="text;html=1;align=right;verticalAlign=middle;whiteSpace=wrap;rounded=0;" parent="1" vertex="1">
          <mxGeometry x="498" y="332" width="100" height="30" as="geometry" />
        </mxCell>
        <mxCell id="9HbOgAZdW0a7DW-UxLI3-62" value="omit_payload_ids" style="text;html=1;align=right;verticalAlign=middle;whiteSpace=wrap;rounded=0;" parent="1" vertex="1">
          <mxGeometry x="498" y="352" width="100" height="30" as="geometry" />
        </mxCell>
        <mxCell id="9HbOgAZdW0a7DW-UxLI3-65" value="Coverage&lt;br&gt;Response" style="shape=parallelogram;perimeter=parallelogramPerimeter;whiteSpace=wrap;html=1;fixedSize=1;" parent="1" vertex="1">
          <mxGeometry x="698" y="272" width="100" height="40" as="geometry" />
        </mxCell>
        <mxCell id="9HbOgAZdW0a7DW-UxLI3-68" style="edgeStyle=orthogonalEdgeStyle;rounded=0;orthogonalLoop=1;jettySize=auto;html=1;entryX=0;entryY=0.5;entryDx=0;entryDy=0;exitX=0.5;exitY=1;exitDx=0;exitDy=0;" parent="1" source="9HbOgAZdW0a7DW-UxLI3-4" target="9HbOgAZdW0a7DW-UxLI3-69" edge="1">
          <mxGeometry relative="1" as="geometry">
            <mxPoint x="638" y="362" as="sourcePoint" />
          </mxGeometry>
        </mxCell>
        <mxCell id="9HbOgAZdW0a7DW-UxLI3-70" style="edgeStyle=orthogonalEdgeStyle;rounded=0;orthogonalLoop=1;jettySize=auto;html=1;entryX=0.5;entryY=1;entryDx=0;entryDy=0;" parent="1" source="9HbOgAZdW0a7DW-UxLI3-69" target="9HbOgAZdW0a7DW-UxLI3-65" edge="1">
          <mxGeometry relative="1" as="geometry" />
        </mxCell>
        <mxCell id="9HbOgAZdW0a7DW-UxLI3-69" value="target_records" style="text;html=1;align=center;verticalAlign=middle;whiteSpace=wrap;rounded=0;" parent="1" vertex="1">
          <mxGeometry x="678" y="332" width="140" height="30" as="geometry" />
        </mxCell>
        <mxCell id="9HbOgAZdW0a7DW-UxLI3-71" value="harmonic_mean_revisit" style="text;html=1;align=center;verticalAlign=middle;whiteSpace=wrap;rounded=0;" parent="1" vertex="1">
          <mxGeometry x="678" y="352" width="140" height="30" as="geometry" />
        </mxCell>
        <mxCell id="9HbOgAZdW0a7DW-UxLI3-72" value="coverage_fraction" style="text;html=1;align=center;verticalAlign=middle;whiteSpace=wrap;rounded=0;" parent="1" vertex="1">
          <mxGeometry x="678" y="372" width="140" height="30" as="geometry" />
        </mxCell>
        <mxCell id="9HbOgAZdW0a7DW-UxLI3-73" style="edgeStyle=orthogonalEdgeStyle;rounded=0;orthogonalLoop=1;jettySize=auto;html=1;exitX=0.5;exitY=1;exitDx=0;exitDy=0;entryX=0;entryY=0.5;entryDx=0;entryDy=0;" parent="1" source="9HbOgAZdW0a7DW-UxLI3-4" target="9HbOgAZdW0a7DW-UxLI3-71" edge="1">
          <mxGeometry relative="1" as="geometry">
            <mxPoint x="658" y="322" as="sourcePoint" />
            <mxPoint x="658" y="372" as="targetPoint" />
          </mxGeometry>
        </mxCell>
        <mxCell id="9HbOgAZdW0a7DW-UxLI3-74" style="edgeStyle=orthogonalEdgeStyle;rounded=0;orthogonalLoop=1;jettySize=auto;html=1;exitX=0.5;exitY=1;exitDx=0;exitDy=0;entryX=0;entryY=0.5;entryDx=0;entryDy=0;" parent="1" source="9HbOgAZdW0a7DW-UxLI3-4" target="9HbOgAZdW0a7DW-UxLI3-72" edge="1">
          <mxGeometry relative="1" as="geometry">
            <mxPoint x="658" y="322" as="sourcePoint" />
            <mxPoint x="688" y="377" as="targetPoint" />
          </mxGeometry>
        </mxCell>
        <mxCell id="gTSGrGiYzKjbH62CipeW-26" style="edgeStyle=orthogonalEdgeStyle;rounded=0;orthogonalLoop=1;jettySize=auto;html=1;exitX=1;exitY=0.5;exitDx=0;exitDy=0;entryX=0;entryY=0.5;entryDx=0;entryDy=0;" parent="1" source="gTSGrGiYzKjbH62CipeW-27" target="gTSGrGiYzKjbH62CipeW-40" edge="1">
          <mxGeometry relative="1" as="geometry" />
        </mxCell>
        <mxCell id="gTSGrGiYzKjbH62CipeW-27" value="DataMetrics&lt;div&gt;&amp;nbsp;Calculation&lt;/div&gt;" style="rounded=1;whiteSpace=wrap;html=1;" parent="1" vertex="1">
          <mxGeometry x="350" y="112.5" width="80" height="40" as="geometry" />
        </mxCell>
        <mxCell id="gTSGrGiYzKjbH62CipeW-30" value="" style="endArrow=classic;html=1;rounded=0;entryX=0;entryY=0.5;entryDx=0;entryDy=0;" parent="1" source="gTSGrGiYzKjbH62CipeW-36" target="gTSGrGiYzKjbH62CipeW-27" edge="1">
          <mxGeometry width="50" height="50" relative="1" as="geometry">
            <mxPoint x="230" y="132.5" as="sourcePoint" />
            <mxPoint x="290" y="122.5" as="targetPoint" />
          </mxGeometry>
        </mxCell>
        <mxCell id="gTSGrGiYzKjbH62CipeW-36" value="DataMetrics&lt;br&gt;Request" style="shape=parallelogram;perimeter=parallelogramPerimeter;whiteSpace=wrap;html=1;fixedSize=1;" parent="1" vertex="1">
          <mxGeometry x="240" y="112.5" width="100" height="40" as="geometry" />
        </mxCell>
        <mxCell id="gTSGrGiYzKjbH62CipeW-37" style="edgeStyle=orthogonalEdgeStyle;rounded=0;orthogonalLoop=1;jettySize=auto;html=1;entryX=0.5;entryY=1;entryDx=0;entryDy=0;" parent="1" edge="1">
          <mxGeometry relative="1" as="geometry">
            <mxPoint x="290" y="170" as="sourcePoint" />
            <mxPoint x="290.0000000000002" y="152.5" as="targetPoint" />
          </mxGeometry>
        </mxCell>
        <mxCell id="gTSGrGiYzKjbH62CipeW-38" value="start" style="text;html=1;align=right;verticalAlign=middle;whiteSpace=wrap;rounded=0;" parent="1" vertex="1">
          <mxGeometry x="260.5" y="172" width="59" height="30" as="geometry" />
        </mxCell>
        <mxCell id="gTSGrGiYzKjbH62CipeW-39" value="duration" style="text;html=1;align=right;verticalAlign=middle;whiteSpace=wrap;rounded=0;" parent="1" vertex="1">
          <mxGeometry x="260.5" y="187" width="59" height="30" as="geometry" />
        </mxCell>
        <mxCell id="gTSGrGiYzKjbH62CipeW-40" value="DataMetrics Response" style="shape=parallelogram;perimeter=parallelogramPerimeter;whiteSpace=wrap;html=1;fixedSize=1;" parent="1" vertex="1">
          <mxGeometry x="440" y="112.5" width="100" height="40" as="geometry" />
        </mxCell>
        <mxCell id="gTSGrGiYzKjbH62CipeW-41" style="edgeStyle=orthogonalEdgeStyle;rounded=0;orthogonalLoop=1;jettySize=auto;html=1;entryX=0;entryY=0.5;entryDx=0;entryDy=0;exitX=0.5;exitY=1;exitDx=0;exitDy=0;" parent="1" source="gTSGrGiYzKjbH62CipeW-27" target="gTSGrGiYzKjbH62CipeW-43" edge="1">
          <mxGeometry relative="1" as="geometry">
            <mxPoint x="380" y="202.5" as="sourcePoint" />
          </mxGeometry>
        </mxCell>
        <mxCell id="gTSGrGiYzKjbH62CipeW-42" style="edgeStyle=orthogonalEdgeStyle;rounded=0;orthogonalLoop=1;jettySize=auto;html=1;entryX=0.5;entryY=1;entryDx=0;entryDy=0;" parent="1" source="gTSGrGiYzKjbH62CipeW-43" target="gTSGrGiYzKjbH62CipeW-40" edge="1">
          <mxGeometry relative="1" as="geometry" />
        </mxCell>
        <mxCell id="gTSGrGiYzKjbH62CipeW-43" value="target_records" style="text;html=1;align=center;verticalAlign=middle;whiteSpace=wrap;rounded=0;" parent="1" vertex="1">
          <mxGeometry x="450" y="182.5" width="80" height="30" as="geometry" />
        </mxCell>
        <mxCell id="gTSGrGiYzKjbH62CipeW-49" style="edgeStyle=orthogonalEdgeStyle;rounded=0;orthogonalLoop=1;jettySize=auto;html=1;entryX=0;entryY=0.25;entryDx=0;entryDy=0;" parent="1" target="gTSGrGiYzKjbH62CipeW-36" edge="1">
          <mxGeometry relative="1" as="geometry">
            <mxPoint x="500" y="-8" as="targetPoint" />
            <Array as="points">
              <mxPoint x="490" y="60" />
              <mxPoint x="210" y="60" />
              <mxPoint x="210" y="125" />
            </Array>
            <mxPoint x="490" y="-20" as="sourcePoint" />
          </mxGeometry>
        </mxCell>
        <mxCell id="gTSGrGiYzKjbH62CipeW-51" style="edgeStyle=orthogonalEdgeStyle;rounded=0;orthogonalLoop=1;jettySize=auto;html=1;entryX=0.032;entryY=0.901;entryDx=0;entryDy=0;entryPerimeter=0;" parent="1" target="gTSGrGiYzKjbH62CipeW-36" edge="1">
          <mxGeometry relative="1" as="geometry">
            <mxPoint x="490" y="292" as="sourcePoint" />
            <mxPoint x="240" y="152.01999999999998" as="targetPoint" />
            <Array as="points">
              <mxPoint x="490" y="232" />
              <mxPoint x="210" y="232" />
              <mxPoint x="210" y="149" />
            </Array>
          </mxGeometry>
        </mxCell>
        <mxCell id="gTSGrGiYzKjbH62CipeW-55" style="edgeStyle=orthogonalEdgeStyle;rounded=0;orthogonalLoop=1;jettySize=auto;html=1;" parent="1" edge="1">
          <mxGeometry relative="1" as="geometry">
            <mxPoint x="170.00000000000023" y="135.76" as="sourcePoint" />
            <mxPoint x="250" y="135.76" as="targetPoint" />
          </mxGeometry>
        </mxCell>
        <mxCell id="gTSGrGiYzKjbH62CipeW-57" style="edgeStyle=orthogonalEdgeStyle;rounded=0;orthogonalLoop=1;jettySize=auto;html=1;exitX=1;exitY=0.5;exitDx=0;exitDy=0;entryX=0;entryY=0.5;entryDx=0;entryDy=0;" parent="1" source="gTSGrGiYzKjbH62CipeW-58" target="gTSGrGiYzKjbH62CipeW-63" edge="1">
          <mxGeometry relative="1" as="geometry" />
        </mxCell>
        <mxCell id="gTSGrGiYzKjbH62CipeW-58" value="DataMetricsAnalysis&lt;div&gt;&amp;nbsp;Calculation&lt;/div&gt;" style="rounded=1;whiteSpace=wrap;html=1;" parent="1" vertex="1">
          <mxGeometry x="710" y="110" width="124" height="40" as="geometry" />
        </mxCell>
        <mxCell id="gTSGrGiYzKjbH62CipeW-61" style="edgeStyle=orthogonalEdgeStyle;rounded=0;orthogonalLoop=1;jettySize=auto;html=1;exitX=1;exitY=0.5;exitDx=0;exitDy=0;entryX=-0.003;entryY=0.523;entryDx=0;entryDy=0;entryPerimeter=0;" parent="1" target="gTSGrGiYzKjbH62CipeW-58" edge="1">
          <mxGeometry relative="1" as="geometry">
            <mxPoint x="678" y="131" as="sourcePoint" />
            <mxPoint x="708" y="129" as="targetPoint" />
          </mxGeometry>
        </mxCell>
        <mxCell id="gTSGrGiYzKjbH62CipeW-62" value="DataMetricsAnalysis&lt;br&gt;Request" style="shape=parallelogram;perimeter=parallelogramPerimeter;whiteSpace=wrap;html=1;fixedSize=1;" parent="1" vertex="1">
          <mxGeometry x="550" y="112" width="140" height="40" as="geometry" />
        </mxCell>
        <mxCell id="gTSGrGiYzKjbH62CipeW-63" value="DataMetricsAnalysis&lt;div&gt;&lt;div&gt;Response&lt;/div&gt;&lt;/div&gt;" style="shape=parallelogram;perimeter=parallelogramPerimeter;whiteSpace=wrap;html=1;fixedSize=1;" parent="1" vertex="1">
          <mxGeometry x="848" y="112" width="142" height="40" as="geometry" />
        </mxCell>
        <mxCell id="gTSGrGiYzKjbH62CipeW-67" style="edgeStyle=orthogonalEdgeStyle;rounded=0;orthogonalLoop=1;jettySize=auto;html=1;exitX=1;exitY=0.5;exitDx=0;exitDy=0;entryX=0;entryY=0.5;entryDx=0;entryDy=0;" parent="1" target="gTSGrGiYzKjbH62CipeW-62" edge="1">
          <mxGeometry relative="1" as="geometry">
            <mxPoint x="530" y="132.3" as="sourcePoint" />
            <mxPoint x="550" y="132.3" as="targetPoint" />
          </mxGeometry>
        </mxCell>
        <mxCell id="gTSGrGiYzKjbH62CipeW-71" style="edgeStyle=orthogonalEdgeStyle;rounded=0;orthogonalLoop=1;jettySize=auto;html=1;entryX=0.5;entryY=1;entryDx=0;entryDy=0;" parent="1" source="gTSGrGiYzKjbH62CipeW-72" edge="1">
          <mxGeometry relative="1" as="geometry">
            <mxPoint x="620" y="150" as="targetPoint" />
          </mxGeometry>
        </mxCell>
        <mxCell id="gTSGrGiYzKjbH62CipeW-72" value="omit_satellite_ids" style="text;html=1;align=right;verticalAlign=middle;whiteSpace=wrap;rounded=0;" parent="1" vertex="1">
          <mxGeometry x="570" y="170" width="100" height="30" as="geometry" />
        </mxCell>
        <mxCell id="gTSGrGiYzKjbH62CipeW-73" value="omit_payload_ids" style="text;html=1;align=right;verticalAlign=middle;whiteSpace=wrap;rounded=0;" parent="1" vertex="1">
          <mxGeometry x="570" y="190" width="100" height="30" as="geometry" />
        </mxCell>
        <mxCell id="gTSGrGiYzKjbH62CipeW-81" style="edgeStyle=orthogonalEdgeStyle;rounded=0;orthogonalLoop=1;jettySize=auto;html=1;entryX=0;entryY=0.5;entryDx=0;entryDy=0;" parent="1" target="gTSGrGiYzKjbH62CipeW-83" edge="1">
          <mxGeometry relative="1" as="geometry">
            <mxPoint x="770" y="150" as="sourcePoint" />
            <Array as="points">
              <mxPoint x="770" y="210" />
              <mxPoint x="820" y="210" />
              <mxPoint x="820" y="188" />
            </Array>
          </mxGeometry>
        </mxCell>
        <mxCell id="gTSGrGiYzKjbH62CipeW-82" style="edgeStyle=orthogonalEdgeStyle;rounded=0;orthogonalLoop=1;jettySize=auto;html=1;entryX=0.5;entryY=1;entryDx=0;entryDy=0;" parent="1" source="gTSGrGiYzKjbH62CipeW-83" edge="1">
          <mxGeometry relative="1" as="geometry">
            <mxPoint x="910" y="152.5" as="targetPoint" />
          </mxGeometry>
        </mxCell>
        <mxCell id="gTSGrGiYzKjbH62CipeW-83" value="target_records" style="text;html=1;align=center;verticalAlign=middle;whiteSpace=wrap;rounded=0;" parent="1" vertex="1">
          <mxGeometry x="840" y="172.5" width="140" height="30" as="geometry" />
        </mxCell>
        <mxCell id="gTSGrGiYzKjbH62CipeW-84" value="mean_SNR" style="text;html=1;align=center;verticalAlign=middle;whiteSpace=wrap;rounded=0;" parent="1" vertex="1">
          <mxGeometry x="840" y="192.5" width="140" height="30" as="geometry" />
        </mxCell>
        <mxCell id="gTSGrGiYzKjbH62CipeW-85" value="mean_resolution" style="text;html=1;align=center;verticalAlign=middle;whiteSpace=wrap;rounded=0;" parent="1" vertex="1">
          <mxGeometry x="840" y="212.5" width="140" height="30" as="geometry" />
        </mxCell>
        <mxCell id="gTSGrGiYzKjbH62CipeW-86" style="edgeStyle=orthogonalEdgeStyle;rounded=0;orthogonalLoop=1;jettySize=auto;html=1;" parent="1" edge="1">
          <mxGeometry relative="1" as="geometry">
            <mxPoint x="770" y="150" as="sourcePoint" />
            <mxPoint x="840" y="210" as="targetPoint" />
            <Array as="points">
              <mxPoint x="770" y="210" />
              <mxPoint x="840" y="210" />
            </Array>
          </mxGeometry>
        </mxCell>
        <mxCell id="gTSGrGiYzKjbH62CipeW-87" style="edgeStyle=orthogonalEdgeStyle;rounded=0;orthogonalLoop=1;jettySize=auto;html=1;entryX=0;entryY=0.75;entryDx=0;entryDy=0;exitX=0.5;exitY=1;exitDx=0;exitDy=0;" parent="1" source="gTSGrGiYzKjbH62CipeW-58" target="gTSGrGiYzKjbH62CipeW-85" edge="1">
          <mxGeometry relative="1" as="geometry">
            <mxPoint x="760" y="150" as="sourcePoint" />
            <mxPoint x="850" y="217.5" as="targetPoint" />
            <Array as="points">
              <mxPoint x="770" y="150" />
              <mxPoint x="770" y="210" />
              <mxPoint x="820" y="210" />
              <mxPoint x="820" y="235" />
            </Array>
          </mxGeometry>
        </mxCell>
        <mxCell id="gTSGrGiYzKjbH62CipeW-95" value="&lt;b&gt;&lt;font style=&quot;font-size: 18px;&quot;&gt;EOSE-API Function Chaining&lt;/font&gt;&lt;/b&gt;" style="text;html=1;align=center;verticalAlign=middle;whiteSpace=wrap;rounded=0;" parent="1" vertex="1">
          <mxGeometry x="330" y="-130" width="310" height="30" as="geometry" />
        </mxCell>
      </root>
    </mxGraphModel>
  </diagram>
</mxfile>
